<?xml version="1.0" standalone="no"?>
<!DOCTYPE svg PUBLIC "-//W3C//DTD SVG 20010904//EN"
 "http://www.w3.org/TR/2001/REC-SVG-20010904/DTD/svg10.dtd">
<svg version="1.0" xmlns="http://www.w3.org/2000/svg"
 width="880.000000pt" height="880.000000pt" viewBox="0 0 880.000000 880.000000"
 preserveAspectRatio="xMidYMid meet">
<metadata>
Created by potrace 1.11, written by Peter Selinger 2001-2013
</metadata>
<g transform="translate(0.000000,880.000000) scale(0.100000,-0.100000)"
fill="#000000" stroke="none">
<path d="M3964 8348 c-91 -78 -310 -303 -388 -398 -101 -124 -98 -120 -120
-155 -10 -17 -25 -37 -33 -45 -21 -23 -133 -199 -133 -210 0 -5 -6 -15 -14
-23 -17 -17 -81 -139 -78 -149 1 -5 -3 -8 -8 -8 -6 0 -10 -4 -10 -9 0 -5 -13
-38 -29 -73 -53 -114 -130 -334 -147 -415 -11 -58 -13 -70 -19 -93 -3 -14 -8
-43 -11 -65 -3 -22 -8 -51 -10 -65 -18 -96 -24 -414 -10 -505 4 -22 9 -60 12
-85 3 -25 19 -119 35 -210 17 -91 32 -181 35 -200 2 -19 7 -43 10 -53 3 -10 7
-30 9 -45 5 -36 12 -80 31 -177 8 -44 17 -96 20 -115 2 -19 7 -46 10 -60 14
-64 38 -200 50 -280 2 -19 9 -61 15 -93 6 -33 12 -73 14 -90 2 -18 6 -48 9
-67 3 -19 7 -60 10 -90 3 -30 9 -82 12 -115 9 -80 9 -356 1 -425 -13 -99 -53
-228 -82 -260 -8 -9 -15 -21 -15 -27 0 -16 -90 -96 -140 -125 -39 -23 -65 -32
-155 -55 -33 -9 -258 -10 -285 -2 -14 5 -38 10 -55 12 -122 18 -248 112 -301
224 -40 84 -49 138 -47 278 2 134 6 205 13 205 3 0 6 8 6 18 2 29 13 82 40
182 14 52 27 100 28 105 11 46 132 386 199 558 l26 67 -30 -15 c-16 -9 -71
-44 -120 -78 -50 -34 -98 -66 -107 -72 -8 -5 -23 -17 -32 -25 -10 -8 -34 -28
-56 -45 -138 -108 -341 -316 -429 -439 -11 -16 -25 -33 -30 -40 -6 -6 -26 -36
-45 -66 -19 -30 -37 -57 -40 -60 -31 -25 -179 -337 -222 -464 -16 -50 -32 -98
-36 -106 -3 -8 -6 -19 -7 -25 -1 -5 -7 -30 -14 -55 -7 -25 -15 -53 -17 -63 -2
-10 -5 -26 -8 -35 -8 -25 -19 -93 -20 -119 -1 -13 -3 -23 -6 -23 -3 0 -6 -8
-6 -17 -1 -33 -14 -138 -19 -163 -3 -14 -7 -90 -10 -170 -2 -80 -5 -147 -6
-150 -1 -3 -1 -9 0 -14 1 -5 4 -63 7 -129 2 -65 7 -138 10 -161 3 -22 7 -63 9
-90 2 -27 7 -61 10 -75 3 -14 7 -46 10 -71 7 -53 13 -94 21 -133 3 -16 7 -38
9 -50 7 -48 16 -103 21 -119 3 -10 7 -30 10 -45 3 -16 12 -55 21 -88 8 -33 16
-64 17 -70 7 -32 51 -162 58 -169 4 -6 8 -18 8 -28 0 -10 4 -26 9 -36 5 -9 19
-39 31 -67 28 -64 97 -204 113 -230 44 -72 139 -216 150 -227 6 -7 25 -29 41
-48 96 -117 234 -245 361 -333 122 -84 367 -209 440 -223 11 -2 31 -6 45 -9
96 -21 359 -26 394 -7 5 3 26 7 47 8 21 2 59 11 85 20 25 8 54 17 63 19 27 5
144 58 173 77 14 10 29 18 33 18 4 0 27 14 52 30 24 17 48 30 53 30 4 0 10 3
12 8 2 4 23 23 48 42 100 78 208 185 295 295 22 27 48 59 58 69 9 11 17 23 17
27 0 4 6 14 13 21 10 11 75 112 144 223 16 25 172 333 174 343 3 9 23 57 54
127 13 30 22 55 19 55 -2 0 2 12 10 28 11 22 108 300 122 352 25 90 84 325 87
349 3 16 7 33 10 38 3 4 8 26 11 48 4 22 8 47 11 55 2 8 6 31 9 50 3 19 8 46
11 60 14 66 24 132 29 190 3 25 8 63 11 85 11 62 14 107 21 290 3 94 7 171 8
172 4 4 96 -117 96 -127 0 -5 3 -10 8 -10 4 0 27 -30 52 -67 25 -38 47 -70 50
-73 8 -8 70 -111 70 -116 0 -3 13 -24 28 -47 26 -38 152 -288 152 -302 0 -3 9
-24 19 -48 18 -41 33 -77 35 -87 1 -3 16 -48 33 -100 29 -85 59 -199 69 -255
30 -175 38 -364 19 -455 -3 -19 -8 -48 -11 -65 -15 -116 -94 -397 -147 -525
-5 -14 -11 -29 -12 -35 -2 -5 -12 -30 -23 -55 -10 -25 -41 -97 -68 -160 -27
-63 -53 -118 -59 -122 -5 -4 -7 -8 -3 -8 4 0 -7 -30 -23 -67 -45 -99 -100
-259 -98 -283 0 -3 -4 -17 -10 -33 -7 -18 -7 -27 0 -27 6 0 6 -6 0 -18 -7 -13
-6 -23 1 -30 7 -7 9 -12 4 -12 -4 0 2 -14 14 -30 35 -49 85 -68 181 -71 46 -1
157 8 199 16 13 2 42 7 65 10 22 3 64 10 92 16 29 6 63 11 76 13 12 1 28 6 35
10 7 4 12 5 12 3 0 -3 17 -1 38 4 20 5 45 11 54 14 48 11 182 50 248 72 78 25
91 31 150 56 19 9 55 24 80 35 72 31 144 66 155 74 6 5 53 34 105 65 52 31 99
62 103 69 4 8 15 14 22 14 8 0 15 3 15 8 0 4 11 14 24 22 61 38 244 215 322
310 69 85 144 188 144 198 0 6 4 12 8 14 22 9 139 225 208 387 49 115 121 316
130 364 2 17 8 35 12 41 4 6 7 14 8 19 1 4 2 8 4 10 1 1 3 11 4 22 2 11 8 38
14 60 6 22 13 51 16 65 18 83 27 129 32 160 4 19 7 40 9 45 5 24 15 83 19 115
10 75 18 136 22 160 6 40 15 143 18 218 2 38 5 74 8 78 10 22 -2 474 -16 604
-17 153 -20 178 -31 245 -14 91 -21 128 -41 214 -8 36 -17 77 -20 91 -3 14
-14 56 -25 95 -24 82 -23 81 -34 120 -4 17 -12 36 -18 43 -5 6 -7 12 -4 12 3
0 -5 30 -19 68 -14 37 -27 72 -28 77 -9 33 -104 249 -135 310 -17 33 -31 65
-31 72 0 7 -4 13 -9 13 -5 0 -14 12 -20 28 -10 28 -42 83 -52 92 -3 3 -12 20
-20 38 -8 17 -17 32 -21 32 -5 0 -8 7 -8 15 0 8 -4 15 -10 15 -5 0 -10 4 -10
10 0 28 -222 322 -342 453 -115 125 -249 252 -378 355 -78 62 -72 58 -135 105
-27 20 -55 41 -61 46 -6 5 -30 22 -54 37 -24 16 -55 37 -69 46 -14 10 -41 25
-58 35 -18 9 -33 20 -33 25 0 4 -4 8 -9 8 -4 0 -47 23 -95 50 -48 28 -91 50
-96 50 -4 0 -10 3 -12 8 -3 7 -109 60 -126 63 -4 1 -16 8 -27 15 -32 23 -37
16 -17 -23 25 -47 92 -193 92 -198 0 -3 14 -35 31 -72 17 -38 32 -72 33 -78 2
-5 9 -26 18 -45 8 -19 34 -84 58 -145 23 -60 46 -119 50 -130 13 -32 23 -60
25 -65 0 -3 11 -35 23 -71 12 -36 24 -74 27 -85 2 -10 15 -57 29 -104 13 -47
27 -102 30 -124 4 -21 8 -41 10 -45 10 -16 20 -127 20 -221 0 -127 -25 -197
-81 -227 -18 -9 -33 -21 -33 -25 0 -12 -150 -6 -198 8 -150 45 -306 163 -494
374 -27 29 -48 56 -48 61 0 4 -4 9 -8 11 -9 4 -132 162 -132 171 0 3 -11 18
-25 33 -14 15 -23 29 -21 32 3 2 -3 12 -12 23 -17 17 -112 171 -121 194 -2 5
-12 21 -21 35 -37 54 -192 354 -240 465 -11 28 -30 68 -40 90 -10 22 -31 72
-46 110 -14 39 -32 84 -39 100 -27 64 -117 320 -129 370 -2 6 -11 37 -21 70
-10 33 -20 65 -21 70 -1 6 -10 39 -19 75 -9 36 -25 108 -36 160 -30 139 -37
178 -45 239 -3 23 -9 62 -13 86 -4 23 -7 56 -7 74 1 17 -1 31 -4 31 -8 0 -13
268 -7 383 2 37 1 67 -3 67 -4 0 -29 -19 -56 -42z"/>
</g>
</svg>
